<svg width="120" height="53" viewBox="0 0 120 53" fill="none" xmlns="http://www.w3.org/2000/svg">
<path d="M0.000411987 0.352874C0.000411987 0.519841 1.56805 2.91304 3.46962 5.68656L6.87389 10.7327L24.693 11.011C40.8796 11.28 42.6698 11.3913 44.1818 12.3096C46.5101 13.7288 47.651 15.8438 47.651 18.7842C47.651 21.8268 45.8051 24.322 42.8832 25.1383C41.7979 25.4073 35.5737 25.6856 29.1269 25.6856C22.6337 25.6856 17.3279 25.8989 17.3279 26.1679C17.3279 26.3905 17.9772 27.4758 18.8399 28.5611C19.6562 29.5907 21.2238 31.8726 22.3647 33.5052L24.424 36.5477H31.5665H38.7183L44.3951 45.026C47.5397 49.7011 50.3039 53.6155 50.6286 53.7732C50.9532 53.8845 54.5245 53.8845 58.5873 53.8289L65.9525 53.6712L61.4536 47.1502C58.9677 43.5604 55.9344 39.2656 54.7378 37.633L52.5209 34.6462L54.0329 33.5609C54.8491 32.9672 56.5281 31.3903 57.8267 30.0267C60.591 27.0955 61.7226 23.7283 61.7226 18.3483C61.7226 12.7456 60.5353 9.70306 56.8527 6.06687C54.1998 3.34901 53.2258 2.80173 49.3299 1.54947L44.8868 0.139526H22.4204C10.1298 0.139526 0.000411987 0.250838 0.000411987 0.352874Z" fill="url(#paint0_linear_3_114)" fill-opacity="0.5"/>
<path d="M63.3463 0.575497C63.3463 0.788845 64.2646 1.92979 65.4056 3.02435C66.5465 4.1653 68.2162 6.54923 69.0325 8.29311L70.6001 11.549H91.9905H113.427L116.572 6.66054C118.251 3.99833 119.818 1.44744 119.985 0.955812C120.254 0.250838 117.221 0.139526 91.8235 0.139526C76.1842 0.139526 63.3463 0.352874 63.3463 0.575497Z" fill="url(#paint1_linear_3_114)" fill-opacity="0.5"/>
<path d="M69.4128 28.3478C68.7635 29.8134 67.3536 32.0952 66.3332 33.4495L64.4316 35.8984L70.4425 44.9146L76.3976 53.9402H83.3824C87.2876 53.9402 90.4229 53.7732 90.4229 53.6155C90.4229 53.2352 83.2247 42.7441 80.8408 39.6459C79.8668 38.3936 79.0505 37.2063 79.0505 36.928C79.0505 36.7147 83.0578 36.5477 87.9369 36.5477H96.814L100.385 31.3903C102.333 28.5611 103.956 26.1122 103.956 25.9545C103.956 25.7876 96.4893 25.6855 87.334 25.6855L70.6651 25.7319L69.4128 28.3478Z" fill="url(#paint2_linear_3_114)" fill-opacity="0.5"/>
<defs>
<linearGradient id="paint0_linear_3_114" x1="32.9764" y1="0.139526" x2="32.9764" y2="53.8654" gradientUnits="userSpaceOnUse">
<stop stop-color="#F7CE80"/>
<stop offset="1" stop-color="#927A4C"/>
</linearGradient>
<linearGradient id="paint1_linear_3_114" x1="91.6735" y1="0.139526" x2="91.6735" y2="11.549" gradientUnits="userSpaceOnUse">
<stop stop-color="#F7CE80"/>
<stop offset="1" stop-color="#927A4C"/>
</linearGradient>
<linearGradient id="paint2_linear_3_114" x1="84.1941" y1="25.6855" x2="84.1941" y2="53.9402" gradientUnits="userSpaceOnUse">
<stop stop-color="#F7CE80"/>
<stop offset="1" stop-color="#927A4C"/>
</linearGradient>
</defs>
</svg>
