<svg width="120" height="53" viewBox="0 0 120 53" fill="none" xmlns="http://www.w3.org/2000/svg">
<path d="M0.000549316 0.631927C0.000549316 0.798894 1.56819 3.1921 3.46976 5.96561L6.87403 11.0117L24.6931 11.29C40.8797 11.559 42.6699 11.6703 44.1819 12.5887C46.5102 14.0079 47.6511 16.1228 47.6511 19.0633C47.6511 22.1058 45.8052 24.601 42.8833 25.4173C41.798 25.6863 35.5738 25.9646 29.127 25.9646C22.6339 25.9646 17.328 26.178 17.328 26.447C17.328 26.6696 17.9774 27.7549 18.84 28.8402C19.6563 29.8698 21.2239 32.1517 22.3649 33.7843L24.4241 36.8268H31.5666H38.7184L44.3953 45.305C47.5398 49.9801 50.3041 53.8946 50.6287 54.0523C50.9534 54.1636 54.5246 54.1636 58.5875 54.1079L65.9526 53.9502L61.4538 47.4292C58.9678 43.8394 55.9346 39.5446 54.738 37.9121L52.521 34.9252L54.033 33.8399C54.8493 33.2463 56.5282 31.6693 57.8269 30.3058C60.5911 27.3746 61.7228 24.0074 61.7228 18.6273C61.7228 13.0246 60.5354 9.98211 56.8529 6.34593C54.2 3.62807 53.226 3.08078 49.3301 1.82853L44.8869 0.418579H22.4205C10.1299 0.418579 0.000549316 0.529891 0.000549316 0.631927Z" fill="#8B91A4" fill-opacity="0.11"/>
<path d="M63.3464 0.85455C63.3464 1.0679 64.2648 2.20884 65.4057 3.30341C66.5466 4.44435 68.2163 6.82828 69.0326 8.57216L70.6002 11.828H91.9906H113.427L116.572 6.93959C118.251 4.27738 119.818 1.72649 119.985 1.23486C120.254 0.529891 117.221 0.418579 91.8236 0.418579C76.1844 0.418579 63.3464 0.631927 63.3464 0.85455Z" fill="#8B91A4" fill-opacity="0.11"/>
<path d="M69.413 28.6268C68.7636 30.0924 67.3537 32.3743 66.3333 33.7286L64.4318 36.1774L70.4426 45.1937L76.3977 54.2192H83.3825C87.2877 54.2192 90.423 54.0523 90.423 53.8946C90.423 53.5142 83.2249 43.0231 80.8409 39.9249C79.867 38.6727 79.0507 37.4854 79.0507 37.2071C79.0507 36.9937 83.0579 36.8268 87.937 36.8268H96.8141L100.385 31.6693C102.333 28.8402 103.957 26.3913 103.957 26.2336C103.957 26.0666 96.4895 25.9646 87.3341 25.9646L70.6652 26.011L69.413 28.6268Z" fill="#8B91A4" fill-opacity="0.11"/>
</svg>
